# xmcd
# Track frame offsets:
# 150
# 14557
# 25269
# 38069
# 50909
# 64271
# 75264
# 85333
# 96125
# 106234
# 119470
# 129348
#
# Disc length: 1868 seconds
# Revision: 0
# Processed by: cddbd v1.4PL0 Copyright (c) Steve Scherf et al.
# Submitted via: VisiTrax 2.9.5.180 - For more info visit www.synapsa.com
#
DISCID=97074a0c
DTITLE=Chet Atkins - Reminiscing (w-Hank Snow)
DYEAR=1964
DGENRE=
TTITLE0=Indian Love Call
TTITLE1=I Can't Stop Loving You
TTITLE2=Beautiful Dreamer
TTITLE3=Vaya Con Dios
TTITLE4=Sonny Boy
TTITLE5=The Convict and the Rose
TTITLE6=Brahm's Lullaby
TTITLE7=My Isle of Golden Dreams
TTITLE8=Blue Tango
TTITLE9=Unchained Melody
TTITLE10=In An Old Dutch Garden
TTITLE11=Dark Moon
EXTD=
EXTT0=
EXTT1=
EXTT2=
EXTT3=
EXTT4=
EXTT5=
EXTT6=
EXTT7=
EXTT8=
EXTT9=
EXTT10=
EXTT11=
PLAYORDER=
